<svg width="299" height="160" viewBox="0 0 299 160" fill="none" xmlns="http://www.w3.org/2000/svg">
<path d="M11.6915 159.67C11.6915 159.67 -14.6766 119.668 14.1813 76.3607C39.7858 37.9356 80.1845 68.4896 103.075 29.3904C134.293 -23.93 290.082 -3.10674 270.352 78.9285C260.804 118.628 313.686 120.071 294.014 159.755L11.6915 159.67Z" fill="#EBF3FA"/>
<path d="M208.504 79.7359C208.504 79.7359 203.742 73.4374 208.8 69.9413C208.8 69.9413 212.454 68.0342 215.314 68.3862C215.314 68.3862 210.82 74.9369 212.094 75.6964C213.367 76.4549 216.574 68.0363 216.574 68.0363C216.574 68.0363 224.636 67.7605 227.136 69.157C227.136 69.157 219.936 74.3214 221.358 74.7444C222.78 75.1674 230.522 70.1399 230.522 70.1399C230.522 70.1399 237.901 71.8699 237.219 76.3828C236.537 80.8958 233.88 82.1369 232.758 81.9465C231.637 81.7551 225.187 78.8282 224.986 79.7431C224.784 80.657 228.572 83.9215 231.348 84.2364C231.348 84.2364 225.728 89.6931 222.338 87.8056C218.949 85.9191 218.815 83.2546 216.699 82.1266C214.583 80.9987 212.724 80.8855 213.559 81.9537C214.395 83.022 218.276 84.2509 219.384 86.5264C220.492 88.8018 221.517 90.3538 217.935 89.5861C214.354 88.8183 208.643 85.8142 208.574 82.7761C208.504 79.7359 208.504 79.7359 208.504 79.7359Z" fill="#82B378"/>
<path d="M233.547 76.2753C233.547 76.2753 213.34 74.2355 208.504 79.7344C208.504 79.7344 207.33 82.6284 204.117 85.1293L203.562 86.39C203.562 86.39 207.303 82.9176 208.574 82.7725C208.574 82.7725 207.058 75.4921 233.547 76.2753Z" fill="#82B378"/>
<path d="M204.117 85.1301C204.117 85.1301 199.569 88.0663 198.907 93.7782L199.692 93.8976C199.692 93.8976 201.451 88.0591 204.106 85.8979C206.763 83.7376 204.117 85.1301 204.117 85.1301Z" fill="#82B378"/>
<path d="M185.136 64.6798C185.136 64.6798 174.575 58.7806 179.503 50.7757C179.503 50.7757 183.446 45.8604 187.67 44.5955C187.67 44.5955 185.416 56.5339 187.67 56.8149C189.922 57.0958 189.219 43.3317 189.219 43.3317C189.219 43.3317 200.343 37.9944 204.708 38.4164C204.708 38.4164 197.809 50.0738 200.062 49.7929C202.314 49.5119 210.059 37.7145 210.059 37.7145C210.059 37.7145 221.465 35.6078 223.295 42.3489C225.126 49.0899 222.169 52.4615 220.48 52.8824C218.79 53.3034 207.947 53.1634 208.229 54.5682C208.511 55.973 215.832 58.2197 219.916 56.9559C219.916 56.9559 215.41 68.0514 209.496 67.4895C203.582 66.9275 201.751 63.276 198.09 62.9951C194.429 62.7141 191.754 63.697 193.584 64.6808C195.415 65.6637 201.611 65.003 204.567 67.51C207.524 70.0171 209.918 71.5629 204.427 72.6857C198.935 73.8096 189.078 73.1067 187.107 68.8932C185.136 64.6798 185.136 64.6798 185.136 64.6798Z" fill="#A8D29F"/>
<path d="M218.086 44.4556C218.086 44.4556 188.516 54.0063 185.136 64.6798C185.136 64.6798 185.277 69.4552 182.32 74.9324V77.0391C182.32 77.0391 185.417 69.8761 187.108 68.8932C187.108 68.8932 180.49 59.6235 218.086 44.4556Z" fill="#82B378"/>
<path d="M182.32 74.9326C182.32 74.9326 177.759 81.8394 180.359 90.2477L181.533 89.9338C181.533 89.9338 180.394 80.6733 182.78 76.0153C185.166 71.3573 182.32 74.9326 182.32 74.9326Z" fill="#82B378"/>
<path d="M129.446 67.7021C129.446 67.7021 141.736 62.514 137.307 53.1455C137.307 53.1455 133.583 47.2823 129.108 45.3866C129.108 45.3866 130.127 58.7411 127.623 58.7771C125.12 58.8121 127.565 43.814 127.565 43.814C127.565 43.814 116.023 36.6211 111.188 36.5542C111.188 36.5542 117.332 50.1629 114.898 49.5825C112.463 49.002 105.409 35.137 105.409 35.137C105.409 35.137 93.1669 31.4495 90.3418 38.6156C87.5167 45.7818 90.348 49.8336 92.1485 50.4995C93.949 51.1653 105.848 52.3221 105.368 53.8268C104.888 55.3314 96.5915 56.9092 92.2702 55.0309C92.2702 55.0309 95.8599 67.735 102.409 67.8338C108.958 67.9326 111.407 64.1525 115.454 64.2873C119.5 64.4221 122.313 65.8228 120.187 66.6791C118.062 67.5353 111.353 66.0616 107.807 68.4523C104.262 70.8431 101.451 72.2469 107.333 74.1416C113.214 76.0363 124.101 76.4582 126.773 72.0791C129.446 67.7021 129.446 67.7021 129.446 67.7021Z" fill="#A8D29F"/>
<path d="M95.7939 41.5562C95.7939 41.5562 127.038 55.5971 129.445 67.7022C129.445 67.7022 128.71 72.9181 131.285 79.2784L131.029 81.5868C131.029 81.5868 128.505 73.3627 126.773 72.0814C126.773 72.0814 135.152 62.7231 95.7939 41.5562Z" fill="#82B378"/>
<path d="M131.285 79.2784C131.285 79.2784 135.443 87.3986 131.573 96.2989L130.326 95.8131C130.326 95.8131 132.699 85.8024 130.651 80.4095C128.602 75.0166 131.285 79.2784 131.285 79.2784Z" fill="#82B378"/>
<path d="M104.237 97.8095C102.065 94.6849 101.823 91.7744 101.823 91.7744C101.823 91.7744 107.832 87.4704 104.29 82.9452C104.29 82.9452 101.558 80.2282 98.9059 79.7496C98.9059 79.7496 101.093 86.8468 99.7447 87.1709C98.3951 87.4951 97.8792 79.0878 97.8792 79.0878C97.8792 79.0878 90.7566 76.6055 88.1347 77.1592C88.1347 77.1592 93.1256 83.7685 91.7379 83.752C90.3501 83.7356 84.8371 77.0984 84.8371 77.0984C84.8371 77.0984 77.765 76.5972 77.116 80.8168C76.467 85.0364 78.4945 86.8817 79.549 87.0227C80.6046 87.1637 87.1803 86.3383 87.105 87.21C87.0307 88.0818 82.7373 89.9466 80.1702 89.4578C80.1702 89.4578 83.668 95.889 87.2216 95.1439C90.7752 94.3988 91.6367 92.0564 93.8407 91.6355C96.0446 91.2146 97.7379 91.6293 96.6926 92.3518C95.6484 93.0743 91.84 93.0949 90.2159 94.8197C88.5918 96.5446 87.2443 97.6458 90.6565 97.9536C94.0687 98.2613 100.008 97.1621 100.916 94.4678C100.955 94.3504 100.993 94.2383 101.029 94.1312C100.981 94.3504 100.916 94.4678 100.916 94.4678C101.572 94.757 102.687 96.3604 103.476 97.5985C103.592 97.8115 103.772 98.1038 104.033 98.498C104.141 98.6771 104.228 98.8242 104.289 98.9272C105.796 101.73 105.746 106.866 105.746 106.866L106.48 106.977C107.48 101.693 104.237 97.8095 104.237 97.8095Z" fill="#82B378"/>
<path d="M64.0716 25.8723C64.0128 25.5481 63.2492 22.0777 57.8673 22.6705C57.8673 22.6705 60.5459 22.6026 61.1691 23.6915C61.1691 23.6915 59.1684 22.5244 57.7744 23.1944C56.3804 23.8644 55.8944 26.5412 56.0079 27.381C56.1214 28.2219 57.3266 30.8102 58.2872 30.9059C58.6514 30.942 59.0518 30.8607 59.4098 30.7444C59.2189 31.1643 59.0394 31.6233 58.8774 32.1296C57.3771 36.8144 60.2033 40.7716 61.944 40.0368C63.0604 39.5654 63.6754 41.493 63.6754 41.493L73.6231 30.7588C73.6241 30.7588 68.2401 22.8125 64.0716 25.8723Z" fill="#2C3A64"/>
<path d="M77.0312 155.159L74.6116 156.057C74.6116 156.057 64.1025 141.519 62.8086 128.729C62.5775 126.445 62.6549 124.232 63.1543 122.189C63.1543 122.189 63.0511 121.604 62.8716 120.57C62.789 120.087 62.6858 119.505 62.5692 118.839C62.2277 116.887 61.7572 114.215 61.2196 111.173C59.9835 104.173 58.3811 95.2241 57.1367 88.6456L57.7888 88.4367L64.8423 86.1674L66.3003 81.5495L71.5522 80.1704C71.5522 80.1704 72.7254 82.4603 73.7748 93.2749C73.9687 94.6931 74.1441 96.2574 74.2762 97.9545C74.6848 103.132 74.7147 109.555 73.7768 116.898C73.5354 118.778 73.232 120.719 72.8544 122.712C72.5779 124.174 72.5366 126.166 72.6532 128.454C73.1835 138.908 77.0312 155.159 77.0312 155.159Z" fill="#2B478B"/>
<path d="M74.2784 97.9524L62.8727 120.57C62.7901 120.087 62.6869 119.505 62.5703 118.839C62.2288 116.887 61.7583 114.215 61.2207 111.173C59.9846 104.173 58.3822 95.2241 57.1378 88.6456L57.7899 88.4367L64.8434 86.1674L66.3014 81.5495L71.5533 80.1704C71.5533 80.1704 72.7265 82.4603 73.7759 93.2749C73.9699 94.692 74.1453 96.2564 74.2784 97.9524Z" fill="#233862"/>
<path d="M69.2606 83.0714L68.9965 80.8134C64.5731 81.9856 52.7536 77.5386 52.7536 77.5386C52.7536 77.5386 48.4685 81.2961 49.0308 90.3024C49.3053 94.698 49.8067 113.377 50.3309 118.905C50.5208 120.909 50.6859 122.334 50.754 122.903C50.755 122.907 50.755 122.908 50.755 122.909C50.7756 123.083 50.7147 123.246 50.626 123.398C49.8542 124.704 49.2155 126.064 48.6924 127.454C43.5498 141.123 49.4848 157.955 49.4848 157.955L51.0243 157.336C51.0243 157.336 54.4014 138.604 57.145 130.329C57.6104 128.925 58.0572 127.822 58.4668 127.163C59.6596 125.243 60.7667 122.105 61.7717 118.372C63.6713 111.315 65.1994 102.136 66.2178 95.0499C66.3591 95.0561 69.2606 83.0714 69.2606 83.0714Z" fill="#2B478B"/>
<path d="M76.3925 64.9694C76.4792 65.0579 76.5627 65.1464 76.6649 65.2288C80.4455 68.7424 85.5375 71.8494 88.2615 72.5338C90.0537 72.9908 94.0046 72.3784 97.2847 71.7054C99.4711 71.2752 101.374 70.7997 102.159 70.6134C102.41 70.5547 102.549 70.5115 102.549 70.5115L102.206 68.305C102.206 68.305 100.24 68.1496 97.7965 67.8748C94.3936 67.4755 90.0795 66.8631 88.9745 66.2116C86.4114 64.6926 81.9137 58.321 78.3055 54.3154C78.1167 54.0973 77.9289 53.8873 77.7431 53.6815C77.6069 53.5312 77.4718 53.383 77.3366 53.2389C77.3087 53.2101 77.2747 53.1628 77.2303 53.1381C77.0642 52.9796 76.9239 52.8314 76.7877 52.7017C76.7825 52.6852 76.7588 52.6739 76.7361 52.6605C76.0943 52.0183 74.9707 51.2382 74.9707 51.2382C74.3402 50.8801 73.8212 50.8101 73.4559 51.1157C73.4559 51.1157 72.9844 51.5758 72.5221 52.4434C72.4241 52.6245 72.3271 52.8242 72.2353 53.0424C72.1589 53.1617 72.1208 53.2883 72.0836 53.4149C71.7772 54.2166 71.5543 55.2232 71.5945 56.3975C71.6224 57.2867 71.7927 58.2675 72.1889 59.3491C72.8172 61.1244 74.4104 63.0974 76.3925 64.9694Z" fill="#FFB27D"/>
<path d="M73.101 55.6619C71.8195 56.4966 70.2222 57.1696 68.2308 57.57C60.7646 59.0705 58.0984 52.738 57.1522 48.4145C58.1799 47.8659 59.1354 47.7651 59.6874 47.7146C60.225 47.6663 60.7904 47.6405 61.2578 47.6302C62.1091 47.0168 63.4236 44.448 63.8126 40.4116L64.1593 40.5145L69.9602 42.2744C69.9602 42.2744 69.6403 44.1208 69.4587 45.8693C69.3184 47.2371 69.2657 48.5472 69.5165 48.8755C69.9694 48.9867 70.2418 49.0587 70.2418 49.0587C70.2418 49.0587 70.2418 49.0608 70.2449 49.0639C70.3192 49.1966 71.9371 52.0258 73.101 55.6619Z" fill="#FFB27D"/>
<path d="M75.7001 60.3145C75.6661 60.473 75.6238 60.6284 75.5774 60.788C74.267 65.1589 73.2062 82.6311 73.2062 82.6311C73.9007 84.815 61.1711 85.2627 54.1517 84.2531C51.599 83.8867 49.8016 83.3278 49.6777 82.5899C48.422 79.7659 51.4958 74.4914 53.2705 71.8104C53.4934 71.4738 53.6853 71.1198 53.8432 70.7534C54.2446 69.8313 54.4375 68.8268 54.3973 67.8141C54.3436 66.4289 54.225 65.0837 54.0805 63.823C53.8091 61.4466 53.4449 59.3718 53.255 57.9032C53.255 57.9032 53.255 57.9032 53.255 57.9022C53.6244 57.5358 53.9835 57.1962 54.3189 56.873C54.8296 56.3749 55.2774 55.9138 55.5911 55.4661C55.9367 54.9783 56.1287 54.5018 56.0864 54.0026C56.0533 53.6249 55.9852 53.2421 55.8903 52.8644C55.8459 52.6853 55.7964 52.5083 55.7428 52.3302C55.1732 50.4674 54.1238 48.8558 54.1238 48.8558C56.0244 47.7473 59.6864 47.7134 59.6864 47.7134C59.6864 47.7134 59.7111 47.913 59.7576 48.2393C59.9361 49.5494 60.4365 52.9076 60.9493 53.4819C61.5901 54.1982 71.7142 56.274 72.0661 55.1255C72.4128 53.9965 70.3223 49.2448 70.2439 49.0647C70.2418 49.0616 70.2418 49.0585 70.2418 49.0585C73.4838 49.8273 74.8922 50.6959 74.9562 50.7474C74.9562 50.7474 74.9541 50.7474 74.9531 50.7463C73.1939 52.285 76.6236 56.1258 75.7001 60.3145Z" fill="#FF9843"/>
<path d="M69.9592 42.2775C69.9592 42.2775 69.6383 44.1218 69.4588 45.8714C66.1559 45.4474 64.7073 42.259 64.1583 40.5166L69.9592 42.2775Z" fill="#ED985F"/>
<path d="M70.8991 44.0451C70.8991 44.0451 63.0501 43.3916 63.533 38.5216C64.0159 33.6526 63.3287 30.2882 68.3609 30.5002C73.3931 30.7112 74.1803 32.6656 74.4156 34.3298C74.6508 35.9939 72.9535 44.0894 70.8991 44.0451Z" fill="#FFB27D"/>
<path d="M74.4547 31.5996C73.3899 30.0136 72.4427 30.2442 71.8855 30.6332C67.8377 27.8565 64.7298 31.0541 64.7298 31.0541C63.8548 34.4957 61.1288 36.2442 61.1288 36.2442C61.1288 36.2442 62.4691 37.2672 65.8462 36.7516C66.8781 36.5942 67.848 35.9705 68.6982 35.1821C67.1422 37.2775 65.1673 38.7009 65.1673 38.7009C69.2822 37.2806 71.4098 31.9814 71.6255 31.4205C72.0609 31.897 72.9101 32.9221 73.1061 33.8627C73.3723 35.142 73.2918 37.7118 74.0461 37.6995C74.0451 37.6985 76.0509 33.977 74.4547 31.5996Z" fill="#2C3A64"/>
<path d="M109.476 68.0142C108.69 68.7604 107.897 70.6263 105.479 70.5903C103.754 70.5758 102.008 70.7693 101.162 70.8733C100.833 70.9309 100.642 70.9535 100.642 70.9535L100.556 68.2221C100.556 68.2221 100.591 68.2252 100.669 68.2129C101.253 68.1254 104.22 67.6705 105.394 66.8935C106.711 66.0125 109.793 66.8286 109.793 66.8286C109.793 66.8286 110.266 67.2825 109.476 68.0142Z" fill="#FFB27D"/>
<path d="M58.439 159.211H46.2532C46.2532 159.211 45.9612 157.358 46.5979 155.952C47.2077 154.604 48.1631 153.991 47.9341 152.359C48.7079 153.155 49.9709 154.045 51.7322 153.808C51.9478 154.157 53.1251 156.025 53.8464 156.542C54.6419 157.113 58.1934 156.909 58.439 159.211Z" fill="#233862"/>
<path d="M84.6037 159.211H72.4179C72.4179 159.211 71.9618 157.272 72.7625 155.953C73.4704 154.786 73.199 154.121 72.6748 153.155C73.2269 153.381 73.9409 153.586 74.7271 153.541C75.3338 153.506 75.9766 153.232 76.539 152.905C77.0631 153.501 79.3094 156.04 80.011 156.543C80.8076 157.114 84.3581 156.91 84.6037 159.211Z" fill="#233862"/>
<path d="M69.0275 41.2288C69.0275 41.2288 69.1368 41.873 70.7279 41.8751C70.7279 41.8751 72.0631 41.8761 72.0662 41.1763C72.0662 41.1763 70.8074 40.5979 69.0275 41.2288Z" fill="white"/>
<path d="M55.815 72.179C55.3331 75.2243 53.125 81.3356 54.1517 84.2543C51.599 83.8879 49.8016 83.3291 49.6777 82.5912C48.422 79.7671 51.4958 74.4926 53.2705 71.8116C53.4934 71.4751 53.6853 71.121 53.8432 70.7547C54.2446 69.8325 54.4375 68.828 54.3973 67.8153C54.3436 66.4301 54.225 65.085 54.0805 63.8242C54.0805 63.8242 56.3278 68.9423 55.815 72.179Z" fill="#ED7D2B"/>
<path d="M73.0638 51.6311C73.1485 54.3378 75.111 61.7685 75.5773 60.7877C76.1098 59.669 78.1703 55.4164 79.1381 55.26C79.0876 55.0634 75.1264 50.6956 74.9531 50.746C74.9521 50.7471 73.8759 51.0743 73.0638 51.6311Z" fill="#FF9843"/>
<path d="M54.3787 90.028L52.3574 91.3701C52.3574 91.3701 51.8456 90.732 51.0356 89.7131C50.7931 89.4064 50.6641 89.2212 50.6641 89.2212C50.0234 88.3978 49.2784 87.3872 48.4633 86.2911L48.4499 86.2788C47.0848 84.3655 45.5845 82.1909 44.4371 80.2242C43.6395 78.8296 43.0184 77.539 42.715 76.5243C42.682 76.4224 42.6634 76.3339 42.6428 76.2186C42.0495 73.6447 43.1381 68.5348 44.8705 63.5485C45.1088 62.859 45.3596 62.1807 45.6 61.5179C46.5214 59.0726 47.5573 56.7745 48.5974 54.9179C49.2072 53.8012 49.815 52.8276 50.401 52.101C50.6043 51.8406 50.7952 51.5957 51.0015 51.3868C51.113 51.2602 51.2244 51.1388 51.3348 51.0225C52.5493 51.1243 55.0968 51.605 56.9881 53.7827C56.9562 53.8969 56.9221 54.0112 56.8881 54.1285C56.1235 56.5882 54.9431 59.6068 53.7194 62.5656C53.0538 64.1907 52.3728 65.8034 51.7764 67.3204C51.3978 68.2271 51.0562 69.0916 50.7467 69.8903C50.1647 71.4186 49.7324 72.6906 49.5611 73.5829C49.4445 74.1613 49.6107 75.2491 49.9233 76.5871C50.4598 78.9192 51.4813 82.0592 52.4316 84.7247C52.8196 85.8372 53.2024 86.8726 53.5223 87.7309C54.032 89.1203 54.3787 90.028 54.3787 90.028Z" fill="#FFB27D"/>
<path d="M55.2629 61.4819C53.2436 58.4418 47.4562 57.1337 47.4562 57.1337C50.7219 46.7977 59.2963 47.7559 59.2963 47.7559C59.2963 47.7559 56.1771 58.5097 55.2629 61.4819Z" fill="#FF9843"/>
<path d="M52.3573 91.3714C52.3573 91.3714 52.8887 92.1536 52.9475 92.7155C53.0073 93.2784 53.5119 95.1433 54.164 95.7351C54.8172 96.3269 56.3009 97.5114 56.5083 97.3334C56.7157 97.1553 57.3172 95.7598 56.7601 94.7728C56.5083 94.3272 56.1668 93.085 55.7169 92.7844C55.17 92.4191 54.3776 90.0283 54.3776 90.0283L52.3573 91.3714Z" fill="#FFB27D"/>
<path d="M54.387 90.3315C54.387 90.3315 55.9945 91.1456 56.2123 91.7971C56.43 92.4486 57.3287 93.7618 57.2358 93.9141C57.1368 94.0767 55.7397 93.1885 55.265 92.3796C54.7904 91.5707 54.387 90.3315 54.387 90.3315Z" fill="#FFB27D"/>
<path d="M92.6459 82.7582L151.521 47.6017C154.768 45.6627 158.821 45.6627 162.068 47.6017L220.943 82.7582V140.058L92.6469 133.643V82.7582H92.6459Z" fill="#ED7D2B"/>
<path d="M209.899 57.3696H103.689V148.921H209.899V57.3696Z" fill="#FCECDB"/>
<path d="M108.444 62.3687C109.001 62.1386 109.265 61.5016 109.035 60.946C108.804 60.3904 108.165 60.1266 107.608 60.3567C107.051 60.5869 106.787 61.2238 107.018 61.7794C107.248 62.335 107.887 62.5989 108.444 62.3687Z" fill="#EFCBAB"/>
<path d="M204.408 61.3633C204.408 60.7622 204.897 60.2744 205.5 60.2744C206.102 60.2744 206.591 60.7622 206.591 61.3633C206.591 61.9643 206.102 62.4521 205.5 62.4521C204.896 62.4532 204.408 61.9653 204.408 61.3633Z" fill="#EFCBAB"/>
<path d="M205.5 61.2446H108.023V61.4813H205.5V61.2446Z" fill="#EFCBAB"/>
<path d="M108.142 60.9312H107.904V158.158H108.142V60.9312Z" fill="#EFCBAB"/>
<path d="M205.657 60.9312H205.419V158.158H205.657V60.9312Z" fill="#EFCBAB"/>
<path d="M220.942 82.5996V159.21H92.6459V82.5996L156.794 120.905L220.942 82.5996Z" fill="#FF9843"/>
<path d="M92.6459 159.211L151.409 117.19C154.628 114.888 158.96 114.888 162.179 117.19L220.942 159.211H92.6459Z" fill="#ED7D2B"/>
<path d="M176.378 70.053H137.654C137.091 70.053 136.631 69.594 136.631 69.0331C136.631 68.4722 137.091 68.0132 137.654 68.0132H176.378C176.94 68.0132 177.4 68.4722 177.4 69.0331C177.4 69.594 176.94 70.053 176.378 70.053Z" fill="#EFCBAB"/>
<path d="M186.352 74.1448H127.678C127.116 74.1448 126.656 73.6858 126.656 73.1249C126.656 72.564 127.116 72.105 127.678 72.105H186.352C186.915 72.105 187.375 72.564 187.375 73.1249C187.375 73.6858 186.915 74.1448 186.352 74.1448Z" fill="#EFCBAB"/>
<path d="M178.744 86.8343H136.292C135.885 86.8343 135.552 86.5018 135.552 86.0963C135.552 85.6908 135.885 85.3584 136.292 85.3584H178.744C179.15 85.3584 179.483 85.6908 179.483 86.0963C179.482 86.5029 179.15 86.8343 178.744 86.8343Z" fill="#EFCBAB"/>
<path d="M140.554 90.6877H128.584C128.177 90.6877 127.844 90.3553 127.844 89.9498C127.844 89.5443 128.177 89.2119 128.584 89.2119H140.554C140.961 89.2119 141.294 89.5443 141.294 89.9498C141.294 90.3563 140.961 90.6877 140.554 90.6877Z" fill="#EFCBAB"/>
<path d="M158.606 90.6872H144.145C143.738 90.6872 143.405 90.3548 143.405 89.9493C143.405 89.5438 143.738 89.2114 144.145 89.2114H158.606C159.012 89.2114 159.345 89.5438 159.345 89.9493C159.345 90.3558 159.013 90.6872 158.606 90.6872Z" fill="#EFCBAB"/>
<path d="M186.45 90.6872H161.45C161.044 90.6872 160.711 90.3548 160.711 89.9493C160.711 89.5438 161.044 89.2114 161.45 89.2114H186.45C186.857 89.2114 187.19 89.5438 187.19 89.9493C187.19 90.3558 186.857 90.6872 186.45 90.6872Z" fill="#EFCBAB"/>
<path d="M158.702 95.1687H135.449C135.042 95.1687 134.709 94.8363 134.709 94.4308C134.709 94.0253 135.042 93.6929 135.449 93.6929H158.702C159.108 93.6929 159.442 94.0253 159.442 94.4308C159.442 94.8363 159.108 95.1687 158.702 95.1687Z" fill="#EFCBAB"/>
<path d="M179.586 95.1687H161.271C160.864 95.1687 160.531 94.8363 160.531 94.4308C160.531 94.0253 160.864 93.6929 161.271 93.6929H179.586C179.992 93.6929 180.326 94.0253 180.326 94.4308C180.326 94.8363 179.992 95.1687 179.586 95.1687Z" fill="#EFCBAB"/>
<path d="M165.233 104.278C163.835 105.435 162.338 106.401 160.761 107.282C160.894 106.865 161.006 106.432 160.985 106.047C160.957 105.516 160.532 105.283 160.107 105.063C160.002 105.008 159.904 104.951 159.806 104.893C159.971 104.731 160.056 104.508 159.946 104.264C159.767 103.862 159.263 103.927 159.093 104.299C159.061 104.368 159.043 104.435 159.035 104.5C158.967 104.464 158.914 104.425 158.869 104.37C159.128 103.888 159.372 103.396 159.597 102.893C159.648 102.78 159.584 102.647 159.493 102.578C159.12 102.297 158.61 102.388 158.31 102.741C157.954 103.16 158.043 103.797 158.214 104.272C158.226 104.305 158.238 104.339 158.253 104.372C157.923 104.967 157.564 105.544 157.179 106.106C157.143 106.07 157.107 106.034 157.07 105.999C156.97 105.902 156.863 105.777 156.77 105.639C156.947 105.181 157.059 104.7 157.101 104.199C157.12 103.976 156.896 103.866 156.708 103.935C156.19 104.126 155.912 104.651 155.979 105.191C156.002 105.377 156.062 105.554 156.147 105.718C156.031 105.968 155.894 106.211 155.732 106.445C155.627 106.596 155.702 106.751 155.826 106.823C155.656 107.387 155.428 107.963 155.038 108.37C154.719 108.701 154.125 108.953 153.737 108.559C153.491 108.31 153.46 107.893 153.426 107.564C153.344 106.752 153.282 105.909 153.312 105.092C153.326 104.705 153.367 104.312 153.499 103.946C153.582 103.719 153.697 103.375 153.808 103.766C153.863 103.959 153.787 104.256 153.768 104.451C153.733 104.8 154.275 104.841 154.31 104.494C154.352 104.084 154.535 103.226 154.071 102.969C153.686 102.756 153.332 103.062 153.154 103.381C152.512 104.53 152.768 106.106 152.864 107.355C152.941 108.35 153.314 109.572 154.588 109.255C155.787 108.957 156.227 107.449 156.503 106.412C156.521 106.347 156.514 106.289 156.495 106.238C156.499 106.23 156.504 106.221 156.509 106.212C156.559 106.263 156.608 106.311 156.659 106.362C156.73 106.424 156.797 106.49 156.862 106.558C156.736 106.732 156.608 106.905 156.476 107.076C156.402 107.173 156.424 107.318 156.498 107.407C156.901 107.892 157.627 107.533 157.612 106.937C157.609 106.799 157.575 106.677 157.521 106.564C157.9 106.021 158.254 105.461 158.582 104.887C158.752 105.054 158.97 105.161 159.236 105.148C159.255 105.147 159.272 105.145 159.291 105.143C159.43 105.29 159.606 105.413 159.766 105.503C159.92 105.59 160.099 105.644 160.238 105.758C160.497 105.968 160.42 106.209 160.363 106.509C160.288 106.903 160.163 107.296 160.047 107.681C159.499 107.995 158.959 108.393 158.774 109.023C158.606 109.597 158.755 110.201 159.249 110.558C159.397 110.665 159.594 110.578 159.657 110.423C159.967 109.664 160.246 108.893 160.486 108.11C160.493 108.086 160.501 108.06 160.51 108.035C160.993 107.76 161.5 107.518 161.979 107.236C163.249 106.486 164.454 105.631 165.59 104.69C165.863 104.463 165.503 104.054 165.233 104.278ZM158.616 103.554C158.611 103.337 158.727 102.939 158.977 102.944C158.864 103.189 158.746 103.432 158.624 103.671C158.621 103.632 158.617 103.592 158.616 103.554ZM159.308 109.83C159.079 109.402 159.408 108.874 159.782 108.525C159.636 108.964 159.477 109.399 159.308 109.83Z" fill="#F99746"/>
<g opacity="0.5">
<path opacity="0.5" d="M154.501 19.7739L160.032 31.9449L139.649 41.1591L134.119 28.9881L147.075 30.467L154.501 19.7739Z" fill="#CDE0FB"/>
<path opacity="0.5" d="M134.119 28.9867L154.501 19.7715L148.407 30.0159C147.926 30.8238 146.995 31.2509 146.067 31.0872L134.119 28.9867Z" fill="#B1CFF2"/>
</g>
<g opacity="0.5">
<path opacity="0.5" d="M34.6722 99.2476L37.5809 107.029L24.549 111.877L21.6393 104.094L29.6101 105.562L34.6722 99.2476Z" fill="#CDE0FB"/>
<path opacity="0.5" d="M21.6393 104.093L34.6722 99.2451L30.4562 105.339C30.1239 105.819 29.5275 106.044 28.959 105.904L21.6393 104.093Z" fill="#B1CFF2"/>
</g>
<g opacity="0.5">
<path opacity="0.5" d="M257.852 52.9273L253.764 68.2085L228.174 61.3964L232.262 46.1152L243.012 57.1624L257.852 52.9273Z" fill="#CDE0FB"/>
<path opacity="0.5" d="M232.262 46.1152L257.852 52.9263L244.569 57.7469C243.522 58.1267 242.348 57.821 241.622 56.9771L232.262 46.1152Z" fill="#B1CFF2"/>
</g>
<path d="M29.0569 133.655C29.0569 133.655 29.0559 133.655 29.0569 133.655C28.4378 133.653 27.8383 133.645 27.2729 133.629C27.2069 133.627 27.1553 133.573 27.1573 133.508C27.1594 133.442 27.212 133.391 27.2791 133.392C27.8425 133.408 28.4409 133.416 29.0569 133.418C29.123 133.418 29.1756 133.472 29.1756 133.537C29.1756 133.602 29.1219 133.655 29.0569 133.655ZM30.8399 133.642C30.7749 133.642 30.7223 133.59 30.7212 133.525C30.7202 133.46 30.7728 133.406 30.8378 133.405C31.4084 133.396 32.0079 133.38 32.6188 133.361C32.6869 133.355 32.7395 133.41 32.7415 133.475C32.7436 133.541 32.692 133.595 32.627 133.597C32.0141 133.618 31.4136 133.632 30.842 133.643C30.8409 133.642 30.8409 133.642 30.8399 133.642ZM25.4961 133.553C25.4941 133.553 25.491 133.553 25.4889 133.553C24.8605 133.515 24.2621 133.467 23.709 133.408C23.644 133.401 23.5965 133.343 23.6038 133.277C23.611 133.212 23.6698 133.165 23.7348 133.172C24.2848 133.231 24.8801 133.279 25.5044 133.317C25.5694 133.321 25.6199 133.377 25.6158 133.443C25.6107 133.505 25.5591 133.553 25.4961 133.553ZM34.4048 133.526C34.3419 133.526 34.2893 133.477 34.2862 133.413C34.2831 133.348 34.3336 133.293 34.3997 133.29C34.9713 133.263 35.5697 133.232 36.1796 133.197C36.2446 133.195 36.3013 133.243 36.3054 133.308C36.3096 133.373 36.259 133.43 36.194 133.433C35.5842 133.468 34.9837 133.498 34.412 133.525C34.409 133.526 34.4069 133.526 34.4048 133.526ZM37.9656 133.321C37.9037 133.321 37.8511 133.274 37.847 133.211C37.8428 133.146 37.8924 133.09 37.9574 133.085C38.5424 133.046 39.1347 133.002 39.7352 132.957C39.8002 132.952 39.858 133.001 39.8621 133.066C39.8673 133.131 39.8177 133.189 39.7527 133.193C39.1522 133.238 38.5589 133.281 37.9728 133.32C37.9718 133.321 37.9687 133.321 37.9656 133.321ZM21.958 133.162C21.9508 133.162 21.9436 133.162 21.9374 133.16C21.2822 133.043 20.6951 132.903 20.1915 132.743C20.1286 132.723 20.0946 132.657 20.1142 132.594C20.1338 132.531 20.2008 132.497 20.2638 132.517C20.757 132.673 21.3348 132.811 21.9797 132.926C22.0447 132.938 22.087 132.999 22.0756 133.064C22.0643 133.122 22.0148 133.162 21.958 133.162ZM41.5223 133.052C41.4614 133.052 41.4088 133.005 41.4036 132.944C41.3985 132.879 41.447 132.821 41.512 132.816C42.0981 132.767 42.6903 132.715 43.2877 132.661C43.3538 132.655 43.4105 132.703 43.4167 132.768C43.4229 132.833 43.3744 132.89 43.3094 132.896C42.7109 132.951 42.1187 133.002 41.5326 133.052C41.5285 133.052 41.5254 133.052 41.5223 133.052ZM45.0738 132.731C45.0129 132.731 44.9613 132.684 44.9562 132.624C44.95 132.559 44.9975 132.5 45.0625 132.494C45.6496 132.437 46.2408 132.378 46.8362 132.317C46.9012 132.312 46.96 132.357 46.9662 132.423C46.9724 132.488 46.9259 132.546 46.8599 132.553C46.2645 132.613 45.6723 132.673 45.0852 132.73C45.081 132.731 45.0769 132.731 45.0738 132.731ZM48.6202 132.367C48.5603 132.367 48.5087 132.322 48.5025 132.261C48.4953 132.197 48.5428 132.138 48.6078 132.131C49.1949 132.068 49.7861 132.002 50.3794 131.935C50.4444 131.928 50.5032 131.974 50.5105 132.039C50.5177 132.104 50.4712 132.163 50.4062 132.17C49.8119 132.237 49.2217 132.302 48.6336 132.365C48.6294 132.367 48.6243 132.367 48.6202 132.367ZM18.6232 131.997C18.5995 131.997 18.5747 131.99 18.553 131.974C18.2094 131.724 17.9608 131.441 17.8153 131.133C17.709 130.909 17.6203 130.684 17.5511 130.463C17.5315 130.401 17.5666 130.335 17.6295 130.315C17.6915 130.296 17.7585 130.331 17.7781 130.393C17.8431 130.602 17.9277 130.817 18.0299 131.033C18.1589 131.304 18.3817 131.556 18.6934 131.783C18.746 131.821 18.7584 131.895 18.7191 131.949C18.6954 131.979 18.6593 131.997 18.6232 131.997ZM52.1634 131.969C52.1036 131.969 52.053 131.925 52.0458 131.864C52.0386 131.799 52.085 131.741 52.15 131.732C52.7381 131.663 53.3273 131.593 53.9196 131.522C53.9846 131.515 54.0434 131.561 54.0516 131.625C54.0599 131.69 54.0135 131.75 53.9485 131.757C53.3562 131.829 52.766 131.899 52.1779 131.968C52.1727 131.969 52.1686 131.969 52.1634 131.969ZM55.7036 131.541C55.6448 131.541 55.5932 131.497 55.586 131.437C55.5777 131.372 55.6241 131.312 55.6891 131.305C56.2752 131.232 56.8633 131.158 57.4515 131.082C57.5165 131.075 57.5763 131.12 57.5846 131.185C57.5928 131.25 57.5474 131.309 57.4824 131.318C56.8933 131.393 56.3062 131.468 55.7191 131.541C55.7129 131.541 55.7087 131.541 55.7036 131.541ZM59.2314 131.088C59.1726 131.088 59.122 131.045 59.1137 130.985C59.1055 130.92 59.1509 130.861 59.2159 130.852C59.8051 130.775 60.3942 130.696 60.9834 130.617C61.0494 130.609 61.1082 130.654 61.1165 130.719C61.1258 130.784 61.0794 130.843 61.0143 130.851C60.4252 130.931 59.835 131.01 59.2458 131.087C59.2417 131.088 59.2365 131.088 59.2314 131.088ZM62.7695 130.611C62.7107 130.611 62.6601 130.567 62.6518 130.509C62.6426 130.444 62.688 130.384 62.753 130.375C63.3421 130.294 63.9303 130.211 64.5184 130.129C64.5824 130.12 64.6432 130.165 64.6525 130.23C64.6618 130.295 64.6164 130.354 64.5514 130.364C63.9633 130.446 63.3741 130.528 62.786 130.61C62.7808 130.611 62.7746 130.611 62.7695 130.611ZM66.3003 130.114C66.2426 130.114 66.192 130.071 66.1827 130.012C66.1734 129.947 66.2188 129.887 66.2838 129.878C66.873 129.793 67.4611 129.708 68.0482 129.623C68.1132 129.612 68.1731 129.658 68.1834 129.722C68.1927 129.787 68.1483 129.847 68.0833 129.856C67.4962 129.942 66.9081 130.027 66.3189 130.111C66.3117 130.114 66.3055 130.114 66.3003 130.114ZM69.8281 129.598C69.7703 129.598 69.7198 129.556 69.7105 129.497C69.7012 129.432 69.7456 129.373 69.8106 129.362C70.4008 129.275 70.9879 129.186 71.5729 129.098C71.6379 129.087 71.6978 129.133 71.7081 129.198C71.7184 129.262 71.673 129.322 71.609 129.332C71.024 129.421 70.4359 129.509 69.8457 129.597C69.8395 129.598 69.8333 129.598 69.8281 129.598ZM73.3528 129.066C73.295 129.066 73.2445 129.024 73.2352 128.965C73.2249 128.9 73.2692 128.839 73.3342 128.83C73.9244 128.74 74.5126 128.649 75.0956 128.558C75.1606 128.549 75.2214 128.592 75.2307 128.657C75.241 128.722 75.1967 128.783 75.1317 128.792C74.5477 128.883 73.9606 128.973 73.3693 129.064C73.3652 129.065 73.359 129.066 73.3528 129.066ZM17.548 128.796C17.5398 128.796 17.5326 128.795 17.5243 128.794C17.4603 128.781 17.418 128.719 17.4314 128.655C17.546 128.09 17.8132 127.546 18.227 127.038C18.2682 126.987 18.3436 126.98 18.3941 127.021C18.4447 127.062 18.4529 127.136 18.4117 127.188C18.0227 127.666 17.7709 128.176 17.6646 128.703C17.6522 128.757 17.6027 128.796 17.548 128.796ZM76.8765 128.517C76.8187 128.517 76.7681 128.476 76.7588 128.417C76.7485 128.353 76.7929 128.292 76.8579 128.282C77.4491 128.188 78.0362 128.095 78.6182 128.002C78.6821 127.991 78.7441 128.036 78.7544 128.099C78.7647 128.164 78.7203 128.225 78.6564 128.235C78.0744 128.328 77.4873 128.422 76.895 128.515C76.8889 128.517 76.8827 128.517 76.8765 128.517ZM80.3981 127.955C80.3413 127.955 80.2907 127.914 80.2815 127.856C80.2711 127.791 80.3145 127.73 80.3795 127.72C80.9718 127.624 81.5589 127.528 82.1387 127.434C82.2037 127.423 82.2646 127.466 82.2749 127.531C82.2853 127.596 82.2419 127.657 82.1769 127.667C81.596 127.762 81.0099 127.858 80.4166 127.953C80.4104 127.954 80.4043 127.955 80.3981 127.955ZM83.9165 127.379C83.8598 127.379 83.8092 127.338 83.8 127.28C83.7896 127.215 83.833 127.155 83.898 127.144C84.4923 127.046 85.0784 126.948 85.6572 126.851C85.7233 126.84 85.7831 126.884 85.7945 126.949C85.8058 127.014 85.7614 127.074 85.6975 127.085C85.1186 127.181 84.5325 127.279 83.9382 127.378C83.93 127.379 83.9238 127.379 83.9165 127.379ZM87.4351 126.79C87.3783 126.79 87.3277 126.749 87.3185 126.692C87.3071 126.627 87.3515 126.566 87.4154 126.555C88.0118 126.454 88.5979 126.354 89.1737 126.255C89.2387 126.244 89.2995 126.287 89.3109 126.352C89.3222 126.417 89.2789 126.477 89.2139 126.489C88.6381 126.588 88.0521 126.687 87.4557 126.788C87.4474 126.789 87.4412 126.79 87.4351 126.79ZM90.9505 126.188C90.8937 126.188 90.8442 126.148 90.8339 126.09C90.8225 126.026 90.8658 125.965 90.9308 125.954C91.5303 125.85 92.1174 125.748 92.688 125.648C92.753 125.637 92.8139 125.68 92.8253 125.744C92.8366 125.809 92.7933 125.869 92.7293 125.881C92.1577 125.98 91.5716 126.082 90.9711 126.186C90.9639 126.187 90.9577 126.188 90.9505 126.188ZM19.6344 126.045C19.5972 126.045 19.5601 126.028 19.5374 125.995C19.5002 125.941 19.5126 125.867 19.5673 125.83C20.0161 125.518 20.5393 125.216 21.1243 124.932C21.1831 124.903 21.2543 124.928 21.2832 124.986C21.3121 125.045 21.2873 125.116 21.2285 125.145C20.6548 125.424 20.142 125.72 19.7035 126.025C19.6808 126.038 19.6571 126.045 19.6344 126.045ZM94.4659 125.574C94.4091 125.574 94.3596 125.534 94.3493 125.476C94.3379 125.411 94.3812 125.351 94.4452 125.339C95.0519 125.232 95.638 125.128 96.2024 125.027C96.2664 125.015 96.3283 125.058 96.3396 125.123C96.351 125.188 96.3087 125.249 96.2437 125.26C95.6793 125.361 95.0932 125.465 94.4865 125.572C94.4793 125.574 94.472 125.574 94.4659 125.574ZM97.9792 124.947C97.9224 124.947 97.8729 124.907 97.8626 124.849C97.8512 124.784 97.8935 124.724 97.9585 124.711C98.5787 124.599 99.1647 124.493 99.7157 124.393C99.7807 124.381 99.8416 124.424 99.854 124.488C99.8653 124.552 99.823 124.614 99.758 124.626C99.207 124.727 98.621 124.833 98.0009 124.945C97.9936 124.947 97.9864 124.947 97.9792 124.947ZM22.8165 124.46C22.768 124.46 22.7226 124.43 22.7051 124.383C22.6824 124.321 22.7133 124.253 22.7752 124.231C23.3014 124.035 23.8731 123.845 24.4757 123.666C24.5386 123.647 24.6046 123.682 24.6232 123.745C24.6418 123.808 24.6067 123.874 24.5438 123.892C23.9463 124.07 23.3799 124.259 22.8588 124.452C22.8443 124.457 22.8299 124.46 22.8165 124.46ZM101.495 124.307C101.439 124.307 101.388 124.267 101.378 124.21C101.366 124.145 101.409 124.085 101.473 124.072C102.143 123.949 102.732 123.84 103.231 123.746C103.295 123.734 103.358 123.776 103.369 123.841C103.382 123.906 103.339 123.967 103.274 123.979C102.774 124.072 102.185 124.181 101.515 124.305C101.509 124.306 101.502 124.307 101.495 124.307ZM105.014 123.648C104.958 123.648 104.909 123.609 104.898 123.553C104.885 123.489 104.927 123.426 104.991 123.414C105.112 123.391 105.18 123.378 105.195 123.375C105.265 123.358 105.34 123.416 105.34 123.49C105.34 123.588 105.329 123.59 105.036 123.646C105.03 123.647 105.022 123.648 105.014 123.648ZM26.2318 123.432C26.1782 123.432 26.1297 123.396 26.1162 123.342C26.1008 123.278 26.14 123.214 26.2029 123.199C26.758 123.063 27.3451 122.931 27.9498 122.807C28.0138 122.794 28.0767 122.835 28.0901 122.9C28.1035 122.964 28.0622 123.027 27.9972 123.04C27.3957 123.163 26.8117 123.293 26.2597 123.429C26.2504 123.431 26.2411 123.432 26.2318 123.432ZM29.7286 122.714C29.6719 122.714 29.6213 122.673 29.612 122.616C29.6007 122.551 29.644 122.49 29.709 122.479C30.2786 122.381 30.8729 122.288 31.4755 122.2C31.5415 122.19 31.6003 122.235 31.6096 122.3C31.6189 122.365 31.5735 122.425 31.5095 122.434C30.909 122.52 30.3168 122.614 29.7493 122.712C29.742 122.713 29.7359 122.714 29.7286 122.714ZM33.2626 122.201C33.2038 122.201 33.1522 122.157 33.145 122.097C33.1367 122.032 33.1832 121.974 33.2482 121.966C33.8332 121.896 34.4317 121.83 35.026 121.771C35.091 121.766 35.1498 121.812 35.156 121.877C35.1622 121.942 35.1147 122.001 35.0497 122.007C34.4564 122.065 33.86 122.13 33.2771 122.201C33.2719 122.201 33.2678 122.201 33.2626 122.201ZM36.8182 121.85C36.7563 121.85 36.7047 121.803 36.6996 121.741C36.6944 121.676 36.744 121.619 36.809 121.614C37.912 121.529 38.5981 121.499 38.6054 121.499C38.6714 121.494 38.7261 121.548 38.7292 121.613C38.7323 121.677 38.6807 121.733 38.6157 121.736C38.6095 121.736 37.9264 121.765 36.8275 121.849C36.8244 121.85 36.8213 121.85 36.8182 121.85Z" fill="#AFCDFB"/>
<path d="M108.984 129.886L123.609 121.619L110.267 122.405L111.296 124.653L108.54 127.698L108.984 129.886Z" fill="#AFCDFB"/>
<path d="M123.609 121.619L108.283 124.42L97.1198 132.152L123.609 121.619Z" fill="white"/>
<path d="M110.267 122.404L123.609 121.618L109.652 117.539L110.267 122.404Z" fill="white"/>
<path d="M188.096 21.2608L204.7 23.8821L193.772 16.2065L193.174 18.6045L189.115 19.2735L188.096 21.2608Z" fill="#AFCDFB"/>
<path d="M204.7 23.8821L190.961 16.5503L177.4 15.6621L204.7 23.8821Z" fill="white"/>
<path d="M193.772 16.2067L204.7 23.8823L196.331 12.019L193.772 16.2067Z" fill="white"/>
<path d="M238.374 88.3639C238.374 88.3639 234.989 88.5986 232.49 94.6799C229.969 100.814 235.607 100.753 233.707 104.661C231.808 108.569 236.442 110.9 237.848 114.099C239.256 117.299 246.344 125.017 246.905 128.538C247.467 132.057 253.77 124.878 253.77 124.878C253.77 124.878 260.178 118.061 257.88 114.1C254.093 107.572 257.373 106.154 257.255 102.509C257.137 98.8615 250.199 84.4953 238.374 88.3639Z" fill="#233862"/>
<path d="M236.537 110.18C236.537 110.18 223.43 115.879 220.94 115.77C218.45 115.662 203.108 111.108 203.108 111.108L203.499 113.741C203.499 113.741 215.339 120.534 219.479 120.919C223.554 121.298 237.489 117.27 238.835 116.42C240.178 115.57 240.446 111.042 236.537 110.18Z" fill="#FFAD76"/>
<path d="M235.479 116.428C236.683 117.262 238.194 117.949 240.09 118.386C247.199 120.024 249.922 114.031 250.945 109.919C249.976 109.365 249.064 109.244 248.537 109.181C248.023 109.12 247.482 109.08 247.035 109.058C246.238 108.449 245.048 105.953 244.785 102.079L244.451 102.168L238.849 103.698C238.849 103.698 239.106 105.474 239.232 107.152C239.329 108.467 239.5 109.228 239.25 109.536C238.813 109.631 238.395 110.185 238.395 110.185C238.395 110.185 238.395 110.187 238.392 110.191C238.317 110.312 236.692 112.978 235.479 116.428Z" fill="#FFB27D"/>
<path d="M238.848 103.697C238.848 103.697 239.106 105.472 239.231 107.152C242.405 106.835 243.877 103.822 244.451 102.168L238.848 103.697Z" fill="#ED985F"/>
<path d="M237.901 105.365C237.901 105.365 245.434 104.95 245.103 100.274C244.772 95.5988 245.521 92.397 240.697 92.4639C235.873 92.5308 235.066 94.3802 234.796 95.9683C234.527 97.5552 235.933 105.351 237.901 105.365Z" fill="#FFB27D"/>
<path d="M253.091 131.704C253.771 128.236 255.989 114.377 253.771 109.918C252.975 108.315 249.849 108.171 246.419 108.311C245.353 108.999 241.286 111.595 239.616 111.271C239.598 111.268 239.565 111.26 239.522 111.249C238.735 111.053 238.594 110.009 239.25 109.534C239.251 109.533 237.396 109.863 235.287 110.259C234.095 110.483 230.882 112.142 230.882 112.142C230.882 112.142 232.5 115.057 234.887 116.065C234.481 119.686 235.085 121.283 238.85 129.645C242.032 136.713 238.421 143.078 238.421 143.078C238.421 143.078 257.152 158.099 257.257 150.451C257.333 144.692 252.221 136.138 253.091 131.704Z" fill="#739AF0"/>
<path d="M237.491 159.412C236.473 159.298 235.555 158.741 234.986 157.891C234.895 157.756 234.799 157.611 234.696 157.455C232.564 154.236 231.734 144.377 226.939 133.873C225.771 131.315 221.577 130.856 220.434 127.965C220.434 127.965 217.62 118.596 225.82 118.32C234.021 118.043 247.783 144.39 248 147.153C248.211 149.829 253.422 161.205 237.491 159.412Z" fill="#233862"/>
<path d="M204.897 159.196H216.569C216.569 159.196 217.005 157.34 216.239 156.076C215.561 154.958 215.821 154.321 216.322 153.396C215.794 153.612 215.11 153.809 214.357 153.766C213.775 153.733 213.16 153.469 212.621 153.156C212.119 153.727 209.967 156.159 209.296 156.641C208.533 157.188 205.131 156.993 204.897 159.196Z" fill="#172B4C"/>
<path d="M251.86 113.55C251.86 113.55 253.379 127.336 243.527 130.225C233.675 133.114 230.878 117.54 238.832 116.421C246.788 115.3 251.86 113.55 251.86 113.55Z" fill="#5486D6"/>
<path d="M220.167 121.028C219.464 126.284 216.72 142.872 211.878 150.964C210.317 153.573 215.811 155.036 215.841 155.028C216.577 154.836 217.805 153.665 218.371 153.155C222.302 149.622 230.281 139.616 230.281 131.595C230.281 127.684 230.35 120.215 227.498 118.316C225.742 117.148 220.447 118.94 220.167 121.028Z" fill="#233862"/>
<path d="M244.451 159.196C244.451 159.196 244.018 158.596 243.264 157.455C242.366 156.099 241.373 153.43 240.168 150.009C238.902 146.418 237.399 142 235.522 137.403C234.944 135.984 234.328 134.548 233.673 133.113C232.505 130.556 229.291 130.91 228.148 128.019C228.148 128.019 223.686 117.998 231.887 117.721C240.088 117.444 255.671 144.529 256.566 147.152C257.549 150.023 262.331 161.947 244.451 159.196Z" fill="#2B478B"/>
<path d="M213.465 159.196H225.137C225.137 159.196 225.574 157.34 224.807 156.076C224.129 154.958 224.389 154.321 224.891 153.396C224.361 153.612 223.678 153.809 222.925 153.766C222.343 153.733 221.728 153.469 221.189 153.156C220.687 153.727 218.536 156.159 217.864 156.641C217.101 157.188 213.7 156.993 213.465 159.196Z" fill="#233862"/>
<path d="M240.168 150.01C238.902 146.419 237.399 142.001 235.522 137.404C236.013 133.921 237.07 130.874 238.848 129.646C238.849 129.645 243.162 142.974 240.168 150.01Z" fill="#23407A"/>
<path d="M226.98 120.655C226.277 125.911 225.287 142.872 220.445 150.964C218.884 153.573 224.378 155.036 224.408 155.029C225.144 154.836 226.372 153.665 226.938 153.156C230.868 149.622 238.848 139.617 238.848 131.595C238.848 127.685 234.246 120.529 231.395 118.63C229.639 117.462 227.26 118.568 226.98 120.655Z" fill="#2B478B"/>
<path d="M212.528 106.871C212.528 106.871 211.931 105.356 210.842 105.454C209.754 105.553 199.87 106.871 199.87 106.871C199.87 106.871 201.021 107.146 201.455 107.899L206.015 121.299H217.709L212.528 106.871Z" fill="#EBF3FA"/>
<path d="M250.945 109.918C250.945 109.918 234.378 116.003 231.889 115.879C230.281 115.799 216.907 111.11 216.907 111.11L215.707 113.375C215.707 113.375 228.724 121.719 232.302 121.678C239.367 121.597 251.288 117.271 252.633 116.421C253.977 115.57 254.855 110.779 250.945 109.918Z" fill="#FFBF94"/>
<path d="M216.906 111.109C216.906 111.109 215.706 109.266 214.51 109.212C213.315 109.158 211.25 110.025 210.544 110.161C209.837 110.297 207.827 110.948 208.425 111.922C209.022 112.898 211.794 113.115 212.99 112.898C214.185 112.681 215.706 113.374 215.706 113.374L216.906 111.109Z" fill="#FFBF94"/>
<path d="M214.836 109.27C214.836 109.27 212.936 108.4 212.392 108.237C211.848 108.075 211.958 108.24 212.121 108.754C212.284 109.268 213.262 109.757 213.262 109.919C213.261 110.08 214.836 109.27 214.836 109.27Z" fill="#FFBF94"/>
<path d="M236.49 102.675C236.49 102.675 237.202 102.394 239.206 102.556C239.206 102.556 239.1 103.336 237.622 103.413C236.785 103.458 236.49 102.675 236.49 102.675Z" fill="white"/>
<path d="M242.41 112.919C242.41 112.919 243.891 117.597 248.98 118.662C248.98 118.662 257.383 116.079 253.199 110.37C253.199 110.37 249.063 107.304 242.41 112.919Z" fill="#739AF0"/>
<path d="M199.871 106.872C199.871 106.872 198.773 107.291 199.604 108.712L210.289 107.291C210.289 107.291 209.918 105.643 210.758 105.464L199.871 106.872Z" fill="white"/>
<path d="M203.699 110.369C203.953 109.357 203.936 109.112 203.363 108.493C202.983 108.085 202.402 109.098 202.102 109.71C201.991 109.439 201.804 109.001 201.74 108.978C201.647 108.946 201.868 110.34 201.868 110.34C201.861 110.397 201.859 110.456 201.861 110.515L201.86 110.514C201.86 110.514 201.397 112.562 203.416 113.668L203.032 112.539C203.267 112.5 203.442 111.399 203.699 110.369Z" fill="#FFAD76"/>
<path d="M237.615 93.4978C237.615 93.4978 239.203 92.943 239.973 94.5609C240.741 96.1788 240.986 100.047 244.069 100.363C247.152 100.679 247.272 93.8106 247.272 93.8106L239.555 90.7715L235.48 93.3372L237.615 93.4978Z" fill="#233862"/>
<path d="M237.615 93.4977C237.615 93.4977 235.876 93.5347 235.479 94.9951C235.082 96.4555 235.702 99.1798 234.739 99.3763C233.777 99.5739 232.902 94.8366 234.764 93.297C236.626 91.7574 237.615 93.4977 237.615 93.4977Z" fill="#233862"/>
<path d="M101.13 68.1399C101.13 68.1399 102.871 67.4823 103.068 67.0284C103.266 66.5746 103.84 66.377 104.532 66.061C105.225 65.7451 105.64 65.1728 105.739 65.2521C105.839 65.3313 105.858 65.7255 105.582 66.0219C105.304 66.3183 104.131 68.39 103.689 68.6267C103.247 68.8645 101.13 68.1399 101.13 68.1399Z" fill="#FFB27D"/>
<path d="M281.73 159.112H270.542C269.943 158.605 270.957 157.453 272.017 157.376C272.477 157.341 273.059 157.438 273.724 157.578C273.878 155.538 274.757 146.369 278.071 146.737C281.797 147.15 278.071 150.775 277.018 152.922C276.238 154.512 275.415 156.791 275.039 157.867C275.341 157.933 275.655 157.996 275.975 158.055C276.469 156.543 278.306 151.456 280.643 151.753C283.386 152.099 282.283 154.139 280.339 155.349C278.912 156.24 277.161 157.506 276.329 158.117C277.033 158.232 277.77 158.309 278.517 158.292C280.432 158.246 281.367 158.81 281.73 159.112Z" fill="#82B378"/>
<path d="M31.001 159.34C31.001 159.34 26.7489 147.69 23.7628 148.684C20.7767 149.676 31.001 159.34 31.001 159.34Z" fill="#82B378"/>
<path d="M29.3717 159.34C29.0096 159.34 22.2244 152.316 21.7714 154.155C21.3195 155.993 29.3717 159.34 29.3717 159.34Z" fill="#82B378"/>
<path d="M36.611 159.34C36.611 159.34 33.8045 156.773 30.2509 157.441C26.6974 158.109 25.1806 158.841 22.9488 158.334C20.7169 157.828 19.5768 159.339 19.5768 159.339H36.611V159.34Z" fill="#82B378"/>
<path d="M298.141 160.001H0.338436C0.152709 160.001 0 159.85 0 159.663V159.548C0 159.363 0.151677 159.21 0.338436 159.21H298.142C298.328 159.21 298.481 159.362 298.481 159.548V159.663C298.48 159.849 298.328 160.001 298.141 160.001Z" fill="#2E3552"/>
<path d="M123.199 154.688H101.093C99.8593 154.688 98.8584 153.69 98.8584 152.459V146.446C98.8584 145.216 99.8593 144.217 101.093 144.217H123.199C124.433 144.217 125.434 145.216 125.434 146.446V152.459C125.434 153.69 124.433 154.688 123.199 154.688Z" fill="#FCECDB"/>
<path d="M118.702 146.82H102.051C101.865 146.82 101.712 146.668 101.712 146.482C101.712 146.297 101.864 146.145 102.051 146.145H118.702C118.888 146.145 119.041 146.296 119.041 146.482C119.041 146.667 118.888 146.82 118.702 146.82Z" fill="#EFCBAB"/>
<path d="M105.004 148.274H102.051C101.865 148.274 101.712 148.122 101.712 147.936C101.712 147.751 101.864 147.599 102.051 147.599H105.004C105.189 147.599 105.342 147.75 105.342 147.936C105.342 148.122 105.189 148.274 105.004 148.274Z" fill="#EFCBAB"/>
<path d="M114.307 148.274H106.171C105.985 148.274 105.832 148.122 105.832 147.936C105.832 147.751 105.984 147.599 106.171 147.599H114.307C114.492 147.599 114.645 147.75 114.645 147.936C114.645 148.122 114.492 148.274 114.307 148.274Z" fill="#EFCBAB"/>
<path d="M118.702 150.967H102.051C101.865 150.967 101.712 150.816 101.712 150.63C101.712 150.444 101.864 150.292 102.051 150.292H118.702C118.888 150.292 119.041 150.443 119.041 150.63C119.041 150.816 118.888 150.967 118.702 150.967Z" fill="#EFCBAB"/>
<path d="M108.094 152.421H102.051C101.865 152.421 101.712 152.27 101.712 152.084C101.712 151.898 101.864 151.746 102.051 151.746H108.094C108.28 151.746 108.432 151.897 108.432 152.084C108.432 152.27 108.281 152.421 108.094 152.421Z" fill="#EFCBAB"/>
<path d="M115.448 152.421H109.405C109.219 152.421 109.066 152.27 109.066 152.084C109.066 151.898 109.218 151.746 109.405 151.746H115.448C115.634 151.746 115.786 151.897 115.786 152.084C115.786 152.27 115.634 152.421 115.448 152.421Z" fill="#EFCBAB"/>
</svg>
